<mxfile host="app.diagrams.net" modified="2022-07-27T07:37:54.428Z" agent="5.0 (Macintosh; Intel Mac OS X 10_15_7) AppleWebKit/537.36 (KHTML, like Gecko) Chrome/103.0.0.0 Safari/537.36" etag="Q4SXyPHLm6PBaoMjP6g_" version="20.2.0" type="github">
  <diagram id="EPx8Ix9m71qAaNsy036W" name="第 1 页">
    <mxGraphModel dx="2066" dy="1129" grid="0" gridSize="10" guides="1" tooltips="1" connect="1" arrows="1" fold="1" page="1" pageScale="1" pageWidth="827" pageHeight="1169" math="0" shadow="0">
      <root>
        <mxCell id="0" />
        <mxCell id="1" parent="0" />
        <mxCell id="9wMJCasg8OFBKxVlcIe8-8" style="edgeStyle=orthogonalEdgeStyle;rounded=0;orthogonalLoop=1;jettySize=auto;html=1;exitX=1;exitY=0.5;exitDx=0;exitDy=0;exitPerimeter=0;entryX=0;entryY=0.5;entryDx=0;entryDy=0;fontSize=20;strokeWidth=2;" edge="1" parent="1" source="9wMJCasg8OFBKxVlcIe8-2" target="9wMJCasg8OFBKxVlcIe8-7">
          <mxGeometry relative="1" as="geometry" />
        </mxCell>
        <mxCell id="9wMJCasg8OFBKxVlcIe8-2" value="" style="sketch=0;points=[[0.015,0.015,0],[0.985,0.015,0],[0.985,0.985,0],[0.015,0.985,0],[0.25,0,0],[0.5,0,0],[0.75,0,0],[1,0.25,0],[1,0.5,0],[1,0.75,0],[0.75,1,0],[0.5,1,0],[0.25,1,0],[0,0.75,0],[0,0.5,0],[0,0.25,0]];verticalLabelPosition=bottom;html=1;verticalAlign=top;aspect=fixed;align=center;pointerEvents=1;shape=mxgraph.cisco19.rect;prIcon=nexus_9300;fillColor=#FAFAFA;strokeColor=#005073;fontSize=20;" vertex="1" parent="1">
          <mxGeometry x="200" y="250" width="90" height="90" as="geometry" />
        </mxCell>
        <mxCell id="9wMJCasg8OFBKxVlcIe8-9" style="edgeStyle=orthogonalEdgeStyle;rounded=0;orthogonalLoop=1;jettySize=auto;html=1;exitX=0.5;exitY=0;exitDx=0;exitDy=0;entryX=0.5;entryY=1;entryDx=0;entryDy=0;entryPerimeter=0;fontSize=20;strokeWidth=2;" edge="1" parent="1" source="9wMJCasg8OFBKxVlcIe8-3" target="9wMJCasg8OFBKxVlcIe8-2">
          <mxGeometry relative="1" as="geometry" />
        </mxCell>
        <mxCell id="9wMJCasg8OFBKxVlcIe8-13" style="edgeStyle=orthogonalEdgeStyle;rounded=0;orthogonalLoop=1;jettySize=auto;html=1;exitX=1;exitY=0.5;exitDx=0;exitDy=0;entryX=0;entryY=0.5;entryDx=0;entryDy=0;fontSize=20;strokeWidth=2;" edge="1" parent="1" source="9wMJCasg8OFBKxVlcIe8-3" target="9wMJCasg8OFBKxVlcIe8-10">
          <mxGeometry relative="1" as="geometry" />
        </mxCell>
        <mxCell id="9wMJCasg8OFBKxVlcIe8-3" value="主动获取" style="ellipse;whiteSpace=wrap;html=1;fontSize=20;verticalAlign=top;fillColor=#FAFAFA;strokeColor=#005073;sketch=0;strokeWidth=2;" vertex="1" parent="1">
          <mxGeometry x="185" y="380" width="120" height="35" as="geometry" />
        </mxCell>
        <mxCell id="9wMJCasg8OFBKxVlcIe8-6" value="TAPD" style="text;html=1;align=center;verticalAlign=middle;resizable=0;points=[];autosize=1;strokeColor=none;fillColor=none;fontSize=20;" vertex="1" parent="1">
          <mxGeometry x="205" y="210" width="80" height="40" as="geometry" />
        </mxCell>
        <mxCell id="9wMJCasg8OFBKxVlcIe8-11" value="" style="edgeStyle=orthogonalEdgeStyle;rounded=0;orthogonalLoop=1;jettySize=auto;html=1;fontSize=20;strokeWidth=2;" edge="1" parent="1" source="9wMJCasg8OFBKxVlcIe8-7" target="9wMJCasg8OFBKxVlcIe8-10">
          <mxGeometry relative="1" as="geometry" />
        </mxCell>
        <mxCell id="9wMJCasg8OFBKxVlcIe8-7" value="回调推送" style="ellipse;whiteSpace=wrap;html=1;fontSize=20;verticalAlign=top;fillColor=#FAFAFA;strokeColor=#005073;sketch=0;strokeWidth=2;" vertex="1" parent="1">
          <mxGeometry x="340" y="277.5" width="120" height="35" as="geometry" />
        </mxCell>
        <mxCell id="9wMJCasg8OFBKxVlcIe8-18" style="edgeStyle=orthogonalEdgeStyle;rounded=0;orthogonalLoop=1;jettySize=auto;html=1;exitX=1;exitY=0.5;exitDx=0;exitDy=0;entryX=0;entryY=0.5;entryDx=0;entryDy=0;fontSize=20;strokeWidth=2;" edge="1" parent="1" source="9wMJCasg8OFBKxVlcIe8-10" target="9wMJCasg8OFBKxVlcIe8-17">
          <mxGeometry relative="1" as="geometry" />
        </mxCell>
        <mxCell id="9wMJCasg8OFBKxVlcIe8-10" value="数据清洗" style="whiteSpace=wrap;html=1;fontSize=20;verticalAlign=top;fillColor=#FAFAFA;strokeColor=#005073;sketch=0;strokeWidth=2;" vertex="1" parent="1">
          <mxGeometry x="340" y="377.5" width="120" height="40" as="geometry" />
        </mxCell>
        <mxCell id="9wMJCasg8OFBKxVlcIe8-14" value="" style="sketch=0;aspect=fixed;html=1;points=[];align=center;image;fontSize=12;image=img/lib/mscae/Person.svg;" vertex="1" parent="1">
          <mxGeometry x="711.5" y="190" width="37" height="50" as="geometry" />
        </mxCell>
        <mxCell id="9wMJCasg8OFBKxVlcIe8-26" style="edgeStyle=orthogonalEdgeStyle;rounded=0;orthogonalLoop=1;jettySize=auto;html=1;exitX=1;exitY=0.5;exitDx=0;exitDy=0;entryX=0.5;entryY=1;entryDx=0;entryDy=0;fontSize=20;startArrow=classic;startFill=1;endArrow=none;endFill=0;strokeWidth=2;" edge="1" parent="1" source="9wMJCasg8OFBKxVlcIe8-17" target="9wMJCasg8OFBKxVlcIe8-23">
          <mxGeometry relative="1" as="geometry" />
        </mxCell>
        <mxCell id="9wMJCasg8OFBKxVlcIe8-17" value="数据存储" style="whiteSpace=wrap;html=1;fontSize=20;verticalAlign=top;fillColor=#FAFAFA;strokeColor=#005073;sketch=0;strokeWidth=2;" vertex="1" parent="1">
          <mxGeometry x="510" y="377.5" width="120" height="40" as="geometry" />
        </mxCell>
        <mxCell id="9wMJCasg8OFBKxVlcIe8-20" style="edgeStyle=orthogonalEdgeStyle;rounded=0;orthogonalLoop=1;jettySize=auto;html=1;exitX=0.5;exitY=0;exitDx=0;exitDy=0;fontSize=20;startArrow=classic;startFill=1;endArrow=none;endFill=0;strokeWidth=2;" edge="1" parent="1" source="9wMJCasg8OFBKxVlcIe8-19" target="9wMJCasg8OFBKxVlcIe8-14">
          <mxGeometry relative="1" as="geometry" />
        </mxCell>
        <mxCell id="9wMJCasg8OFBKxVlcIe8-19" value="生成报表" style="whiteSpace=wrap;html=1;fontSize=20;verticalAlign=top;fillColor=#FAFAFA;strokeColor=#005073;sketch=0;strokeWidth=2;" vertex="1" parent="1">
          <mxGeometry x="670" y="270" width="120" height="40" as="geometry" />
        </mxCell>
        <mxCell id="9wMJCasg8OFBKxVlcIe8-25" style="edgeStyle=orthogonalEdgeStyle;rounded=0;orthogonalLoop=1;jettySize=auto;html=1;exitX=0.5;exitY=0;exitDx=0;exitDy=0;entryX=0.5;entryY=1;entryDx=0;entryDy=0;fontSize=20;startArrow=classic;startFill=1;endArrow=none;endFill=0;strokeWidth=2;" edge="1" parent="1" source="9wMJCasg8OFBKxVlcIe8-23" target="9wMJCasg8OFBKxVlcIe8-19">
          <mxGeometry relative="1" as="geometry" />
        </mxCell>
        <mxCell id="9wMJCasg8OFBKxVlcIe8-27" style="edgeStyle=orthogonalEdgeStyle;rounded=0;orthogonalLoop=1;jettySize=auto;html=1;exitX=0;exitY=0.5;exitDx=0;exitDy=0;entryX=0.5;entryY=0;entryDx=0;entryDy=0;fontSize=20;startArrow=classic;startFill=1;endArrow=none;endFill=0;strokeWidth=2;" edge="1" parent="1" source="9wMJCasg8OFBKxVlcIe8-23" target="9wMJCasg8OFBKxVlcIe8-17">
          <mxGeometry relative="1" as="geometry" />
        </mxCell>
        <mxCell id="9wMJCasg8OFBKxVlcIe8-23" value="数据计算" style="whiteSpace=wrap;html=1;fontSize=20;verticalAlign=top;fillColor=#FAFAFA;strokeColor=#005073;sketch=0;strokeWidth=2;" vertex="1" parent="1">
          <mxGeometry x="670" y="337.5" width="120" height="40" as="geometry" />
        </mxCell>
      </root>
    </mxGraphModel>
  </diagram>
</mxfile>
